# xmcd
#
# Track frame offsets:
# 150
# 15752
# 29104
# 41856
# 57158
# 69085
# 77187
# 91064
# 107716
# 126093
# 142370
# 151597
# 163449
# 177476
# 197803
# 212730
# 226307
#
# Disc length: 3205 seconds
#
# Revision: 1
# Processed by: cddbd v1.4PL0 Copyright (c) Steve Scherf et al.
# Submitted via: CedeCatalogueitor 2.5 http://usuarios.lycos.es/kakasboy
#
DISCID=ea0c8311
DTITLE=Varios - B.S.O.Anastasia
DYEAR=1900
DGENRE=
TTITLE0=Rumor In St. Petersburg
TTITLE1=Journey To The Past
TTITLE2=Once Upon A December
TTITLE3=In The Dark Of The Night
TTITLE4=Learn To Do It
TTITLE5=Learn To Do It ( Waltz)
TTITLE6=Paris Holds The Key
TTITLE7=At The Begining
TTITLE8=Journey To The Past
TTITLE9=Once Upona Adecember
TTITLE10=Prologue
TTITLE11=Speaking Of Shopie
TTITLE12=The Nightmare
TTITLE13=Kidnap And Reunion
TTITLE14=Reminiscuing With Granma
TTITLE15=Finale
TTITLE16=Viaje Tiempo Atras
EXTD=
EXTT0=
EXTT1=
EXTT2=
EXTT3=
EXTT4=
EXTT5=
EXTT6=
EXTT7=
EXTT8=
EXTT9=
EXTT10=
EXTT11=
EXTT12=
EXTT13=
EXTT14=
EXTT15=
EXTT16=
PLAYORDER=
